<svg xmlns="http://www.w3.org/2000/svg" width="56.127" height="78.617" viewBox="0 0 56.127 78.617">
  <g id="Group_2157" data-name="Group 2157" transform="translate(-718.906 -116.757)">
    <path id="Path_2400" data-name="Path 2400" d="M816.455,133.678V116.757l-15.71,9.033-15.71-9.033v16.921l-12.353-7.1v52.663l6.714,3.86V138.182l17.992,10.344v44.918l3.357,1.93,3.357-1.93V148.526l17.991-10.344V183.1l6.715-3.86V126.575Zm-6.714,3.862-9,5.173-9-5.173v-9.176l9,5.172,9-5.172Z" transform="translate(-53.775 0)" fill="#fff"/>
    <path id="Path_2401" data-name="Path 2401" d="M839.454,216.306l6.714-3.861V175.419l-6.714,3.86Z" transform="translate(-83.489 -26.105)" fill="#876d48"/>
    <path id="Path_2402" data-name="Path 2402" d="M838.956,116.758l-15.71,9.033v7.746l9-5.172v9.176l-9,5.172v52.663h0l3.357-1.931V148.526l17.991-10.343V183.1l6.715-3.861V126.576l-12.353,7.1Z" transform="translate(-76.277 0)" fill="#fff"/>
    <path id="Path_2411" data-name="Path 2411" d="M794.939,183.164v29.282l6.715,3.861V179.279l-6.715-3.86Z" transform="translate(-63.68 -26.105)" fill="#fff"/>
    <path id="Path_2412" data-name="Path 2412" d="M839.454,179.28v37.027l6.715-3.861V175.419Z" transform="translate(-83.489 -26.105)" fill="#fff"/>
  </g>
</svg>
